{
    "asset" : {
        "generator" : "Khronos glTF Blender I/O v0.9.4",
        "version" : "2.0"
    },
    "scene" : 0,
    "scenes" : [
        {
            "name" : "Scene",
            "nodes" : [
                0
            ]
        }
    ],
    "nodes" : [
        {
            "mesh" : 0,
            "name" : "AtriumHouse"
        }
    ],
    "materials" : [
        {
            "name" : "AtriumHouseMat",
            "normalTexture" : {
                "index" : 0,
                "texCoord" : 0
            },
            "occlusionTexture" : {
                "index" : 1,
                "texCoord" : 0
            },
            "pbrMetallicRoughness" : {
                "baseColorTexture" : {
                    "index" : 2,
                    "texCoord" : 0
                },
                "metallicRoughnessTexture" : {
                    "index" : 1,
                    "texCoord" : 0
                }
            }
        }
    ],
    "meshes" : [
        {
            "name" : "AtriumHouse_Mesh.001",
            "primitives" : [
                {
                    "attributes" : {
                        "POSITION" : 0,
                        "NORMAL" : 1,
                        "TEXCOORD_0" : 2
                    },
                    "indices" : 3,
                    "material" : 0
                }
            ]
        }
    ],
    "textures" : [
        {
            "source" : 0
        },
        {
            "source" : 1
        },
        {
            "source" : 2
        }
    ],
    "images" : [
        {
            "mimeType" : "image/png",
            "name" : "Atrium_Normal",
            "uri" : "Atrium_Normal.png"
        },
        {
            "mimeType" : "image/png",
            "name" : "Atrium_metallicRoughness",
            "uri" : "Atrium_metallicRoughness.png"
        },
        {
            "mimeType" : "image/jpeg",
            "name" : "Atrium_BaseColor",
            "uri" : "Atrium_BaseColor.jpg"
        }
    ],
    "accessors" : [
        {
            "bufferView" : 0,
            "componentType" : 5126,
            "count" : 6442,
            "max" : [
                20.218481063842773,
                4.515995979309082,
                7.999992370605469
            ],
            "min" : [
                -4.218496799468994,
                -0.25000083446502686,
                -7.999992370605469
            ],
            "type" : "VEC3"
        },
        {
            "bufferView" : 1,
            "componentType" : 5126,
            "count" : 6442,
            "type" : "VEC3"
        },
        {
            "bufferView" : 2,
            "componentType" : 5126,
            "count" : 6442,
            "type" : "VEC2"
        },
        {
            "bufferView" : 3,
            "componentType" : 5123,
            "count" : 7554,
            "type" : "SCALAR"
        }
    ],
    "bufferViews" : [
        {
            "buffer" : 0,
            "byteLength" : 77304,
            "byteOffset" : 0
        },
        {
            "buffer" : 0,
            "byteLength" : 77304,
            "byteOffset" : 77304
        },
        {
            "buffer" : 0,
            "byteLength" : 51536,
            "byteOffset" : 154608
        },
        {
            "buffer" : 0,
            "byteLength" : 15108,
            "byteOffset" : 206144
        }
    ],
    "buffers" : [
        {
            "byteLength" : 221252,
            "uri" : "Atrium.bin"
        }
    ]
}
