{
  "accessors": [
    {
      "bufferView": 2,
      "componentType": 5126,
      "count": 5096,
      "max": [
        20.218481063842773,
        4.515995979309082,
        7.9999923706054688
      ],
      "min": [
        -4.2184967994689941,
        -0.25000083446502686,
        -7.9999923706054688
      ],
      "type": "VEC3"
    },
    {
      "bufferView": 2,
      "byteOffset": 61152,
      "componentType": 5126,
      "count": 5096,
      "max": [
        1,
        1,
        1
      ],
      "min": [
        -1,
        -1,
        -1
      ],
      "type": "VEC3"
    },
    {
      "bufferView": 3,
      "componentType": 5126,
      "count": 5096,
      "max": [
        1,
        1,
        1,
        1
      ],
      "min": [
        -1,
        -1,
        -1,
        -1
      ],
      "type": "VEC4"
    },
    {
      "bufferView": 1,
      "componentType": 5126,
      "count": 5096,
      "max": [
        0.99715220928192139,
        0.99900203943252563
      ],
      "min": [
        0.00096716609550639987,
        0.00099802017211914062
      ],
      "type": "VEC2"
    },
    {
      "bufferView": 1,
      "byteOffset": 40768,
      "componentType": 5126,
      "count": 5096,
      "max": [
        0.99715220928192139,
        0.99900203943252563
      ],
      "min": [
        0.00096716609550639987,
        0.00099802017211914062
      ],
      "type": "VEC2"
    },
    {
      "bufferView": 1,
      "byteOffset": 81536,
      "componentType": 5126,
      "count": 5096,
      "max": [
        0.99715220928192139,
        0.99900203943252563
      ],
      "min": [
        0.00096716609550639987,
        0.00099802017211914062
      ],
      "type": "VEC2"
    },
    {
      "bufferView": 1,
      "byteOffset": 122304,
      "componentType": 5126,
      "count": 5096,
      "max": [
        0.99715220928192139,
        0.99900203943252563
      ],
      "min": [
        0.00096716609550639987,
        0.00099802017211914062
      ],
      "type": "VEC2"
    },
    {
      "bufferView": 1,
      "byteOffset": 163072,
      "componentType": 5126,
      "count": 5096,
      "max": [
        0.99715220928192139,
        0.99900203943252563
      ],
      "min": [
        0.00096716609550639987,
        0.00099802017211914062
      ],
      "type": "VEC2"
    },
    {
      "bufferView": 0,
      "componentType": 5125,
      "count": 7554,
      "max": [
        5095
      ],
      "min": [
        0
      ],
      "type": "SCALAR"
    }
  ],
  "asset": {
    "extras": {
      "author": "j-conrad (https://sketchfab.com/j-conrad)",
      "license": "CC-BY-4.0 (http://creativecommons.org/licenses/by/4.0/)",
      "source": "https://sketchfab.com/3d-models/test-blender-gltf-0164f66f919142419c1983264c17b7d5",
      "title": "TEST_BLENDER_GLTF"
    },
    "generator": "Sketchfab-5.21.0",
    "version": "2.0"
  },
  "bufferViews": [
    {
      "buffer": 0,
      "byteLength": 30216,
      "byteOffset": 0,
      "name": "floatBufferViews",
      "target": 34963
    },
    {
      "buffer": 0,
      "byteLength": 203840,
      "byteOffset": 30216,
      "byteStride": 8,
      "name": "floatBufferViews",
      "target": 34962
    },
    {
      "buffer": 0,
      "byteLength": 122304,
      "byteOffset": 234056,
      "byteStride": 12,
      "name": "floatBufferViews",
      "target": 34962
    },
    {
      "buffer": 0,
      "byteLength": 81536,
      "byteOffset": 356360,
      "byteStride": 16,
      "name": "floatBufferViews",
      "target": 34962
    }
  ],
  "buffers": [
    {
      "byteLength": 437896,
      "uri": "scene.bin"
    }
  ],
  "images": [
    {
      "uri": "textures/AtriumHouseMat_metallicRoughness.png"
    },
    {
      "uri": "textures/AtriumHouseMat_baseColor.jpeg"
    },
    {
      "uri": "textures/AtriumHouseMat_normal.png"
    }
  ],
  "materials": [
    {
      "doubleSided": false,
      "name": "AtriumHouseMat",
      "normalTexture": {
        "index": 2,
        "scale": 1,
        "texCoord": 0
      },
      "occlusionTexture": {
        "index": 0,
        "strength": 1,
        "texCoord": 0
      },
      "pbrMetallicRoughness": {
        "baseColorFactor": [
          1,
          1,
          1,
          1
        ],
        "baseColorTexture": {
          "index": 1,
          "texCoord": 0
        },
        "metallicFactor": 1,
        "metallicRoughnessTexture": {
          "index": 0,
          "texCoord": 0
        },
        "roughnessFactor": 1
      }
    }
  ],
  "meshes": [
    {
      "primitives": [
        {
          "attributes": {
            "NORMAL": 1,
            "POSITION": 0,
            "TANGENT": 2,
            "TEXCOORD_0": 3,
            "TEXCOORD_1": 4,
            "TEXCOORD_2": 5,
            "TEXCOORD_3": 6,
            "TEXCOORD_4": 7
          },
          "indices": 8,
          "material": 0,
          "mode": 4
        }
      ]
    }
  ],
  "nodes": [
    {
      "children": [
        1
      ],
      "name": "RootNode (gltf orientation matrix)",
      "rotation": [
        -0.70710678118654746,
        -0,
        -0,
        0.70710678118654757
      ]
    },
    {
      "children": [
        2
      ],
      "name": "RootNode (model correction matrix)"
    },
    {
      "children": [
        3
      ],
      "name": "root"
    },
    {
      "children": [
        4
      ],
      "matrix": [
        1,
        0,
        0,
        0,
        0,
        2.2204460492503131e-16,
        1,
        0,
        0,
        -1,
        2.2204460492503131e-16,
        0,
        0,
        0,
        0,
        1
      ],
      "name": "GLTF_SceneRootNode"
    },
    {
      "children": [
        5
      ],
      "name": "AtriumHouse_0"
    },
    {
      "mesh": 0,
      "name": ""
    }
  ],
  "samplers": [
    {
      "magFilter": 9729,
      "minFilter": 9987,
      "wrapS": 10497,
      "wrapT": 10497
    }
  ],
  "scene": 0,
  "scenes": [
    {
      "name": "OSG_Scene",
      "nodes": [
        0
      ]
    }
  ],
  "textures": [
    {
      "sampler": 0,
      "source": 0
    },
    {
      "sampler": 0,
      "source": 1
    },
    {
      "sampler": 0,
      "source": 2
    }
  ]
}

